<svg width="16" height="16" viewBox="0 0 16 16" fill="none" xmlns="http://www.w3.org/2000/svg">
    <path fill-rule="evenodd" clip-rule="evenodd" d="M13.1527 10.9211L12.5848 13.1923C12.503 13.5198 12.0707 13.6099 11.8536 13.3449L9.98982 11.0699C9.78532 11.2178 9.57513 11.3569 9.36074 11.4879C7.53478 12.6015 5.17396 11.2648 5.24438 9.15707C5.25278 8.90952 5.27061 8.66144 5.29888 8.41381L2.35772 7.96815C2.0152 7.91624 1.87864 7.50404 2.12698 7.2708L3.84853 5.6529C4.68038 4.87074 5.73193 4.358 6.86207 4.17099C8.35509 1.94295 10.6564 0.503716 13.1727 0.00514501C13.3037 -0.0208323 13.4356 0.0538096 13.4785 0.178271C14.2958 2.56485 14.1753 5.23891 12.9549 7.62086C13.3548 8.67422 13.4274 9.82353 13.1527 10.9211ZM9.6709 3.58701C9.29302 4.22889 9.52262 5.05296 10.184 5.42746C10.8454 5.80195 11.6882 5.58511 12.0661 4.94322C12.444 4.30134 12.214 3.47709 11.5526 3.10259C10.8913 2.7281 10.0488 2.94513 9.6709 3.58701Z" fill="#1B6AEE"/>
    <path d="M6.56219 14.1499C6.26764 14.6646 4.81643 15.5588 4.12275 15.9659C3.95796 16.0629 3.74919 15.9413 3.75 15.7488C3.75264 14.9391 3.79456 13.224 4.08911 12.7093C4.47925 12.0275 5.34926 11.7972 6.03213 12.195C6.715 12.5927 6.95234 13.4681 6.56219 14.1499Z" fill="url(#paint0_linear_21_643)"/>
    <defs>
        <linearGradient id="paint0_linear_21_643" x1="6.02739" y1="10.6938" x2="3.12495" y2="11.9023" gradientUnits="userSpaceOnUse">
            <stop stop-color="#DDE9FC"/>
            <stop offset="1" stop-color="#79A6F0"/>
        </linearGradient>
    </defs>
</svg>
